<?xml version="1.0" encoding="UTF-8" standalone="no"?>
<?xml-stylesheet href="oxo.css" type="text/css"?>
<svg
 id="svg"
 version="1.1"
 xmlns="http://www.w3.org/2000/svg"
 xmlns:xlink="http://www.w3.org/1999/xlink"
 viewBox="0 0 3000 3300"
 onload="startup()" >
  <script id="script" xlink:href="oxo.js"/>
  <defs id="defs">
    <rect height="400" id="background" rx="50" ry="50" width="400" x="0" y="0" />
    <rect height="400" id="border" rx="50" ry="50" width="400" x="0" y="0" />
    <path class="symbol" d="m 200,50 a 150,150 0 0 0 -150,150 150,150 0 0 0 150,150 150,150 0 0 0 150,-150 150,150 0 0 0 -150,-150 z m 0,50 a 100,100 0 0 1 100,100 100,100 0 0 1 -100,100 100,100 0 0 1 -100,-100 100,100 0 0 1 100,-100 z" id="circle" />
    <path class="symbol" d="m 100,50 -50,50 100,100 -100,100 50,50 100,-100 100,100 50,-50 -100,-100 100,-100 -50,-50 -100,100 -100,-100 z" id="cross" />
    <path class="outline" d="m 200.17383,55.00391 c -9.5312,-0.0664 -18.27104,5.292 -22.53516,13.8164 l -120,240 C 49.331406,325.44277 61.4173,344.99724 80,345 l 240,0 c 18.5827,-0.003 30.66859,-19.55723 22.36133,-36.17969 l -120,-240 c -4.2081,-8.41239 -12.78154,-13.75117 -22.1875,-13.8164 z" id="triangle" />
    <path class="icon" d="m 215.46875,155.19531 q 0,5.85938 -3.86719,39.375 -3.86719,33.51563 -6.79687,64.80469 l -9.14063,0 q -2.57812,-31.28906 -6.44531,-64.80469 -3.75,-33.51562 -3.75,-39.375 0,-6.67969 4.21875,-11.25 4.21875,-4.57031 10.78125,-4.57031 6.5625,0 10.78125,4.57031 4.21875,4.45313 4.21875,11.25 z m 1.05469,141.32813 q 0,6.5625 -4.80469,11.25 -4.6875,4.57031 -11.25,4.57031 -6.5625,0 -11.36719,-4.57031 -4.6875,-4.6875 -4.6875,-11.25 0,-6.5625 4.6875,-11.25 4.80469,-4.80469 11.36719,-4.80469 6.5625,0 11.25,4.80469 4.80469,4.6875 4.80469,11.25 z" id="exclamation" />
    <path class="outline" d="m 199.63281,45 c -6.50234,0.09543 -12.71167,2.720536 -17.31054,7.31836 L 52.322266,182.32227 c -9.761807,9.76369 -9.761807,25.59177 0,35.35546 l 130,130 c 9.76369,9.76181 25.59177,9.76181 35.35546,0 l 130,-130 c 9.76181,-9.76369 9.76181,-25.59177 0,-35.35546 l -130,-130 c -4.77884,-4.777756 -11.28812,-7.417682 -18.04492,-7.31836 z" id="diamond" />
    <path class="icon" d="m 199.13553,120.00047 c -21.39484,0.0898 -41.6509,11.93093 -47.73846,34.75574 -3.44843,11.12811 -0.68981,19.455 4.21474,27.82031 0.68971,2.07213 1.99289,4.06785 2.68261,6.14 -0.68972,2.76287 -1.41847,6.33165 -2.10819,9.78524 -0.68971,4.14426 0.80466,7.59767 2.87383,10.36051 0.68972,0.69077 1.30319,2.07241 2.68262,4.22134 2.75879,2.07212 5.51718,5.44941 6.89652,13.04727 -4.82785,-1.38134 -10.30694,-3.41603 -15.13476,-4.79744 -4.90448,-1.38134 -10.42214,-3.4918 -14.56033,-5.5639 -2.06915,-0.69077 -3.60171,-1.30444 -4.98119,-2.68593 -1.37943,-0.69078 -2.64421,-0.69078 -4.02352,0 -2.75875,2.07212 -1.41764,4.71967 -2.10736,7.48254 -0.68972,1.38134 -2.68188,2.91647 -2.6818,4.98864 0,0.69078 -0.11521,1.30444 0.57444,2.68593 1.37944,1.38135 4.13854,1.4589 6.89735,0.76812 2.75879,-1.38134 5.01934,-1.38134 7.08854,0 11.03509,2.76284 22.14681,6.13962 32.56892,9.59322 0,2.07212 0.57465,2.76234 0.57444,4.22051 l -0.57444,2.11068 c -8.35296,2.83962 -16.74421,5.48778 -25.09714,8.25066 -1.37943,1.38134 -3.37218,2.22534 -6.13088,1.53458 -2.06915,-0.69078 -4.09969,-0.11535 -5.55562,0.57526 -1.37944,2.07212 -0.68972,3.41584 0,5.56473 1.45593,1.38134 2.10737,2.91647 2.10737,4.98863 0.68971,2.7628 2.72006,3.33778 4.78915,4.0285 1.37923,0 2.83533,-1.30449 4.21472,-2.68594 2.06916,-1.38135 5.47938,-4.22139 7.47178,-4.22135 l 23.56504,-9.01712 c 5.51752,8.36532 15.36482,12.47117 25.09715,12.47117 8.96603,0 17.35776,-4.14473 23.56503,-11.12862 l 16.47566,6.33202 c 3.44845,2.07212 7.0892,2.83992 10.53764,4.22134 2.75879,1.38135 4.713,3.41516 7.47178,4.79661 3.44848,0 5.63244,-1.34314 6.32209,-4.79661 -0.68972,-1.38134 -0.11512,-2.83991 1.3409,-4.22134 0.68972,-1.38134 1.53293,-2.07263 1.53293,-4.22135 -0.68974,-2.07212 -2.14573,-2.11067 -4.21473,-2.11067 -3.44848,1.38135 -7.74035,1.38135 -11.87854,0 -6.28386,-2.07211 -12.37666,-4.83435 -18.58385,-6.90645 l -2.87299,-1.34338 c 0,-0.69078 8e-5,-1.34319 0,-2.11067 1.37943,-3.45351 2.10672,-6.25431 2.87299,-9.01712 6.20721,-2.76288 11.72555,-5.48783 18.00942,-8.25067 3.44849,-1.45826 8.31469,-1.49601 16.6677,1.34338 2.06915,0.69078 4.06098,0.72874 6.13005,-1.34338 0,-0.69077 4e-5,-1.4201 0,-2.11067 0.68972,-1.38134 0.0385,-2.76255 -1.3409,-3.45323 -0.68972,-1.38134 -2.03062,-2.801 -1.3409,-5.5639 -0.68972,-2.07212 -0.11498,-3.41515 -2.87383,-4.7966 -1.37943,-1.38135 -3.40985,-1.38135 -4.78915,0 -1.99245,1.38134 -4.13865,2.07175 -6.89735,3.45322 -6.20729,2.07212 -12.5678,4.71971 -18.77505,7.48255 -1.37944,0.69077 -2.83522,0.65281 -4.21473,1.34338 0,-1.38135 0.76647,-1.99522 0.76647,-2.68594 0.68971,-2.07212 2.79683,-6.86921 5.55562,-8.25066 3.4484,-4.22106 5.55568,-9.01803 2.10736,-15.92523 0,-0.69078 -0.0767,-1.41928 -0.76646,-2.10984 6.97357,-13.20026 10.42261,-26.51594 7.66381,-39.71624 -2.83539,-18.72612 -22.95167,-34.61302 -50.00308,-35.30369 -0.69209,-0.0216 -1.38327,-0.031 -2.07342,-0.0281 z m 2.07342,2.71407 c 25.67193,0.69078 44.44721,14.65904 47.89572,33.38505 2.14571,15.27246 -2.06952,27.09168 -6.89735,36.07098 -1.37944,-4.1443 -1.41764,-8.25029 -2.10736,-11.70389 0,-5.60244 2.75854,-11.81943 3.44826,-18.0359 0,-4.22105 -0.68947,-6.33157 -3.44826,-9.78525 -0.68972,-1.38134 -1.3409,-1.38134 -1.3409,0 2.06916,4.83498 3.48656,8.97954 2.10736,13.81456 -4.82786,13.2003 -2.83551,18.80334 -0.76646,25.71048 2.06915,6.29311 5.55613,13.12348 -1.3409,17.26779 -8.35292,4.91176 -10.63163,8.46929 -11.87853,16.69252 -0.20011,1.31966 -0.40829,2.10398 -0.75303,3.28393 -15.4967,5.26575 -30.23013,4.70184 -46.37706,-1.17409 -0.68971,-8.36531 -3.37188,-13.16152 -9.57914,-15.9244 -8.35296,-2.07212 -12.56819,-7.56002 -11.87853,-15.15794 1.37944,-4.91173 2.83522,-8.51899 4.21472,-12.66321 1.37944,-4.14431 1.37923,-8.97945 0,-14.58185 -0.68972,-4.14435 -1.49368,-8.21121 0.57527,-13.81373 0,-1.38135 -1.91617,-1.38135 -1.91617,0 -1.37943,3.45355 -2.14577,7.63618 -0.76646,12.47117 0.68972,6.21639 0.61297,11.78 -0.76646,15.92441 -6.20596,-9.74669 -9.00242,-18.72628 -5.55397,-29.1637 6.28383,-24.25175 29.81028,-31.92625 47.12925,-32.61693 z m 22.66366,55.62243 c -0.27559,0.002 -0.55119,0.008 -0.82358,0.019 -3.26888,0.13311 -6.86781,1.26122 -9.38711,2.68593 -4.37724,2.7404 -1.62058,10.63349 -1.34172,11.12863 1.50382,2.67649 2.79789,4.8342 6.32291,6.90645 3.44848,4.83494 8.88922,2.83982 13.0274,-2.68593 2.06915,-4.22102 3.5633,-8.32696 2.10736,-12.47118 0,-3.45359 -1.95414,-5.5639 -7.47178,-5.5639 -0.77585,0 -1.60672,-0.0253 -2.43348,-0.019 z m -37.60309,1.1588 c -1.80866,0.0211 -3.80763,0.37577 -5.46953,1.00319 -5.87748,1.23217 -8.47593,5.90394 -8.5205,7.45027 -0.091,3.14181 0.65179,6.9834 4.78999,11.12779 4.13814,3.45351 7.66274,4.1828 11.11124,2.11067 4.1382,-4.14426 6.78209,-8.94101 7.47178,-11.70388 0.68972,-3.4536 1.37968,-5.67908 -3.44826,-8.44187 -1.37943,-1.03616 -3.17991,-1.44916 -5.17238,-1.53541 l 0,7e-4 c -0.24907,-0.0108 -0.50395,-0.0147 -0.76234,-0.0116 z m 15.47745,18.636 c -1.74361,0.0553 -3.42185,1.15975 -4.56154,3.05592 -2.02593,3.50157 -5.67084,10.553 -4.98119,14.00659 0.68972,3.45355 4.17687,5.37219 9.00471,1.91865 2.83539,2.76287 9.00388,3.49153 9.00388,-1.34339 0,-4.91172 -1.74757,-10.79694 -4.02269,-15.15711 -1.31498,-1.76122 -2.90469,-2.52947 -4.44317,-2.48066 z m 35.67119,15.52793 c -1.37945,4.14367 -3.52507,5.52551 -4.21472,14.58102 0,6.90715 -0.69032,12.54814 -3.44909,17.45982 -9.65569,21.48892 -37.39665,25.5568 -50.57751,6.13999 -2.75878,-4.83494 -5.518,-11.85714 -6.89735,-20.14576 -1.37944,-8.36531 -2.91209,-12.43276 -4.98118,-17.26778 6.28387,1.38134 9.04296,5.48693 11.11207,15.92441 0,2.76288 0.88246,7.17344 2.6818,9.78524 17.26613,5.03487 27.1653,5.54268 46.88552,-1.61582 l 1.01184,-8.74469 c 0.6897,-5.60225 0.0767,-11.28156 8.42862,-16.11643 z m 31.51938,0.14733 c 1.09234,0.0219 1.93786,0.91675 2.39044,2.72981 -0.68972,3.45363 0.72793,4.83515 2.10736,6.90728 0.68951,1.38134 0.61297,1.99605 -0.76646,2.68676 -0.68972,0.76748 -2.72019,0.038 -5.55562,-1.34338 -5.51755,-1.38156 -9.00447,-2.14871 -12.45297,-0.76729 l -19.34949,9.20915 0,-3.45323 c 0,-0.69077 0.57443,-1.4201 0.57443,-2.11067 l 27.0133,-11.89592 c 1.37944,-4e-5 2.83537,-0.65198 4.21473,-1.34255 0.5363,-0.34538 0.89909,-0.48902 1.3409,-0.57526 l 0,-6.9e-4 c 0.16567,-0.0324 0.32733,-0.047 0.48338,-0.0439 z m -137.27732,1.5172 c 0.36907,0.003 0.70308,0.18628 0.96181,0.44531 2.75879,2.07212 5.59389,2.8399 7.66298,4.22135 9.65578,2.76288 19.46492,6.17835 29.12065,9.01795 0,2.07212 0.65202,4.067 1.34174,6.13917 l -22.79858,-6.13917 c -3.44857,-1.38134 -6.93562,-2.11046 -9.00471,-2.87796 -2.06915,-0.69078 -3.56327,-1.38134 -6.32208,0 l -3.44827,0 c -2.06915,0.76748 -1.26497,0.038 -0.57526,-1.34338 -8e-5,-1.38156 0.65201,-1.42011 1.34173,-2.11067 0.6895,-1.38135 0.68972,-1.99523 0,-2.68594 -9e-5,-0.69078 0,-2.18725 0,-2.87796 0.34475,-1.03596 0.82366,-1.55392 1.3409,-1.72662 0.12931,-0.0432 0.25607,-0.063 0.37909,-0.0621 z m 42.53461,30.9524 6.9e-4,0 c 4e-5,0.69077 0.84238,1.41927 1.5321,2.10984 0,1.38134 0.57527,2.76334 0.57527,3.45406 l -22.22417,8.44186 c -2.75875,1.38155 -5.40269,2.64787 -7.47178,4.02931 -1.37943,0.69078 -2.83541,1.49654 -4.21472,2.87797 0,0 -0.72793,-0.0766 -2.10736,-0.7673 4e-5,-2.76279 -0.72793,-5.52585 -2.10737,-6.90727 -0.68972,-2.14889 0.15356,-2.87797 1.53293,-2.87797 3.4484,1.38135 5.51713,0.11536 6.89652,-0.57526 z m 56.90042,2.10984 22.22414,9.01795 c 4.13819,1.38135 6.93537,2.22549 12.45297,0.7673 1.37922,0 1.95387,0.65262 0.57443,2.11067 -1.37943,1.38155 -2.03061,2.72444 -1.34089,4.7966 -1.30274,2.07213 -2.83542,2.68594 -4.21473,2.68594 -1.37944,-0.69078 -2.64412,-1.99522 -4.02352,-2.68594 -3.44848,-2.07211 -6.89725,-3.53063 -11.11207,-4.22134 -4.82784,-2.14889 -9.00378,-3.49176 -13.2186,-5.5639 l -4.21556,-2.11067 c 0.68972,-2.07212 2.1076,-3.4152 2.87383,-4.79661 z" id="skull" />
    <g id="O">
     <use xlink:href="#background" />
     <use xlink:href="#border" />
     <use xlink:href="#circle" />
    </g>
    <g id="X">
     <use xlink:href="#background" />
     <use xlink:href="#border" />
     <use xlink:href="#cross" />
    </g>
    <g id="blank">
     <use xlink:href="#background" />
     <use xlink:href="#border" />
    </g>
    <g id="warning">
     <use xlink:href="#triangle" />
     <use xlink:href="#exclamation" />
    </g>
    <g id="lethal">
     <use xlink:href="#diamond" />
     <use xlink:href="#skull" />
    </g>
    <g id="board">
      <g class="container" id="grid">
        <g id="cell_0_0" onclick="click_cell(this)" transform="translate(0,0)">
           <use xlink:href="#blank" />
        </g>
        <g id="cell_0_1" onclick="click_cell(this)" transform="translate(450,0)">
           <use xlink:href="#blank" />
        </g>
        <g id="cell_0_2" onclick="click_cell(this)" transform="translate(900,0)">
           <use xlink:href="#blank" />
        </g>
        <g id="cell_1_0" onclick="click_cell(this)" transform="translate(0,450)">
           <use xlink:href="#blank" />
        </g>
        <g id="cell_1_1" onclick="click_cell(this)" transform="translate(450,450)">
           <use xlink:href="#blank" />
        </g>
        <g id="cell_1_2" onclick="click_cell(this)" transform="translate(900,450)">
           <use xlink:href="#blank" />
        </g>
        <g id="cell_2_0" onclick="click_cell(this)" transform="translate(0,900)">
           <use xlink:href="#blank" />
        </g>
        <g id="cell_2_1" onclick="click_cell(this)" transform="translate(450,900)">
           <use xlink:href="#blank" />
        </g>
        <g id="cell_2_2" onclick="click_cell(this)" transform="translate(900,900)">
           <use xlink:href="#blank" />
        </g>
      </g>
      <g id="busted" transform="translate(0,1400)">
      <text class="hidden" id="bust" x="700" y="100">This board is bust</text>
      </g>
    </g>
  </defs>
  <g id="boards">
     <use xlink:href="#board" id="board_0" transform="translate(  50,  50)" />
     <use xlink:href="#board" id="board_1" transform="translate(1650,  50)" />
     <use xlink:href="#board" id="board_2" transform="translate(1650,1650)" />
  </g>
  <g class="container" id="controls" transform="translate(50,1650)">
    <g class="radio" id="side_blank" onclick="click_side(this)" transform="translate(0,0),scale(0.5)">
       <use xlink:href="#blank" />
    </g>
    <g class="radio" id="side_O" onclick="click_side(this)" transform="translate(250,0),scale(0.5)">
       <use xlink:href="#O" />
    </g>
    <g class="radio" id="side_X" onclick="click_side(this)" transform="translate(500,0),scale(0.5)">
       <use xlink:href="#X" />
    </g>
    <g id="clear" onclick="game.click_clear()" transform="translate(900,0)">
       <rect height="200" id="clear_rect" rx="25" ry="25" width="400" x="0" y="0">
         <set attributeName="class" attributeType="XML" begin="clear.click" dur="0.2" id="clear_anim" to="active" />
       </rect>
       <text x="200" y="140">Clear</text>
    </g>
    <g transform="translate(0,250)">
       <rect height="200" id="status_rect" rx="25" ry="25" width="1300" x="0" y="0" />
       <text id="status" x="650" y="140" />
    </g>
  </g>
</svg>
