<?xml version="1.0" encoding="UTF-8" standalone="no"?>
<svg
   xmlns:dc="http://purl.org/dc/elements/1.1/"
   xmlns:cc="http://creativecommons.org/ns#"
   xmlns:rdf="http://www.w3.org/1999/02/22-rdf-syntax-ns#"
   xmlns:svg="http://www.w3.org/2000/svg"
   xmlns="http://www.w3.org/2000/svg"
   xmlns:xlink="http://www.w3.org/1999/xlink"
   xmlns:sodipodi="http://sodipodi.sourceforge.net/DTD/sodipodi-0.dtd"
   xmlns:inkscape="http://www.inkscape.org/namespaces/inkscape"
   id="clock"
   version="1.1"
   viewBox="-120 -120 240 240"
   sodipodi:docname="clock.svg"
   onload="startup()"
   inkscape:version="0.91 r13725">
  <sodipodi:namedview
     pagecolor="#ffffff"
     bordercolor="#666666"
     borderopacity="1"
     objecttolerance="10"
     gridtolerance="10"
     guidetolerance="10"
     inkscape:pageopacity="0"
     inkscape:pageshadow="2"
     inkscape:window-width="1920"
     inkscape:window-height="1129"
     id="namedview4508"
     showgrid="true"
     inkscape:zoom="3.959798"
     inkscape:cx="149.86499"
     inkscape:cy="118.96332"
     inkscape:window-x="-4"
     inkscape:window-y="-4"
     inkscape:window-maximized="1"
     inkscape:current-layer="layer1"
     inkscape:snap-bbox="true"
     inkscape:snap-bbox-midpoints="true">
    <inkscape:grid
       type="xygrid"
       id="grid4510"
       units="px"
       spacingx="1"
       spacingy="1"
       empspacing="10"
       originx="-0.05"
       originy="-0.42" />
  </sodipodi:namedview>
  <script
     xlink:href="clock.js"
     id="clock_script" />
  <defs
     id="defs4" />
  <metadata
     id="metadata7">
    <rdf:RDF>
      <cc:Work
         rdf:about="">
        <dc:format>image/svg+xml</dc:format>
        <dc:type
           rdf:resource="http://purl.org/dc/dcmitype/StillImage" />
        <dc:title></dc:title>
      </cc:Work>
    </rdf:RDF>
  </metadata>
  <g
     id="layer1"
     transform="scale(1,-1)"
     inkscape:groupmode="layer"
     inkscape:label="Layer 1">
    <path
       style="opacity:1;fill:#000000;fill-opacity:1;stroke:none;stroke-width:6;stroke-linecap:butt;stroke-linejoin:round;stroke-miterlimit:2.70000005;stroke-dasharray:none;stroke-dashoffset:5;stroke-opacity:1"
       d="m -10.501948,-109.50202 -1.99024,0.20898 1.50781,14.343754 c 0.66125,-0.087 1.3234,-0.16708 1.98633,-0.240234 z m 21.00585,0 -1.49804,14.251953 c 0.66294,0.07446 1.32509,0.155839 1.98633,0.24414 l 1.50195,-14.287113 z m -32.394526,1.69726 -1.957032,0.41602 3,14.109376 c 0.648848,-0.152624 1.299268,-0.298466 1.951168,-0.4375 z m 43.783206,0 -2.97461,13.998052 c 0.6488,0.154689 1.29597,0.316156 1.9414,0.484375 l 2.99024,-14.066407 z m -54.931644,2.87891 -1.902344,0.61914 4.457032,13.716799 c 0.630597,-0.216895 1.263444,-0.427193 1.898437,-0.630859 z m 66.080074,0 -4.42578,13.621095 c 0.62933,0.222601 1.25632,0.45178 1.88086,0.6875 l 4.44727,-13.689455 z m -76.867183,4.0293 -1.828125,0.8125 5.865234,13.17578 c 0.605855,-0.279144 1.214612,-0.551945 1.826172,-0.81836 z m 87.654293,0 -5.83398,13.103514 c 0.60392,0.283422 1.20487,0.573152 1.80273,0.869141 l 5.85938,-13.160155 z m -107.673824,11.316405 -1.619141,1.175781 8.470703,11.658203 c 0.537599,-0.393667 1.079296,-0.781709 1.625,-1.164062 z m 127.693364,0 -8.44922,11.630859 c 0.5348,0.39809 1.06543,0.801758 1.59179,1.210938 l 8.47657,-11.666016 z m -136.708989,7.166015 -1.486329,1.337891 9.636719,10.701172 c 0.496039,-0.445323 0.996717,-0.885452 1.501953,-1.320313 z m 145.722659,0 -9.62891,10.691407 c 0.49303,0.449957 0.98133,0.90506 1.46484,1.365234 l 9.6504,-10.71875 z m -153.937503,8.066407 -1.337891,1.486328 10.69336,9.626953 c 0.44932,-0.492365 0.903772,-0.980022 1.363281,-1.462891 z m 162.154293,0 -10.70117,9.636718 c 0.44467,0.496049 0.88415,0.996728 1.31836,1.501954 l 10.7207,-9.652344 z m -169.480465,8.882812 -1.175781,1.617188 11.628906,8.449218 c 0.39809,-0.534802 0.801758,-1.06543 1.210938,-1.591796 z m 176.806645,0 -11.65625,8.46875 c 0.39302,0.538256 0.78042,1.080604 1.16211,1.626953 l 11.66992,-8.478515 z m -188.486332,19.810547 -0.81445,1.826172 13.103512,5.833984 c 0.283435,-0.603271 0.573164,-1.203564 0.869141,-1.800781 z m 200.16601,0 -13.173818,5.865234 c 0.27849,0.605863 0.55064,1.21462 0.8164,1.826172 l 13.171878,-5.865234 z m -204.39062,10.710937 -0.61719,1.902344 13.621096,4.425782 c 0.221965,-0.628673 0.450493,-1.25501 0.685547,-1.878907 z m 208.61523,0 -13.718748,4.458985 c 0.21688,0.629948 0.42718,1.262144 0.63086,1.896484 l 13.705078,-4.453125 z m -211.69531,11.095704 -0.41601,1.955078 13.998043,2.974606 c 0.154702,-0.64815 0.316169,-1.29467 0.484375,-1.93945 z m 214.77539,0 -14.109368,2.998046 c 0.15262,0.648848 0.29847,1.299268 0.4375,1.951168 l 14.087888,-2.994136 z m -216.68164,11.355464 -0.20898,1.98829 14.253904,1.4980395 c 0.07447,-0.66229 0.155853,-1.3237795 0.24414,-1.9843695 z m 218.58594,0 -14.343748,1.50782 c 0.087,0.66125 0.16708,1.3233995 0.24023,1.9863295 L 109.50195,-10.503969 Z M -95.187499,8.9999305 -109.50195,10.50384 l 0.20898,1.98828 14.345705,-1.50781 c -0.08698,-0.660609 -0.167066,-1.3220995 -0.240234,-1.9843795 z m 190.437501,0.006 c -0.0745,0.66229 -0.15585,1.3237905 -0.24414,1.9843795 l 14.287108,1.50195 0.20898,-1.98828 z m -188.964845,9.8925805 -14.087887,2.99414 0.41601,1.95508 14.109377,-2.99805 c -0.152624,-0.648851 -0.298466,-1.299271 -0.4375,-1.95117 z m 187.521485,0.0195 c -0.1547,0.648149 -0.31617,1.29467 -0.48438,1.93945 l 14.066408,2.99024 0.41602,-1.955081 z m -185.025391,9.669919 -13.705081,4.45313 0.61719,1.90234 13.71875,-4.45898 c -0.216882,-0.62995 -0.42718,-1.262149 -0.630859,-1.89649 z m 182.523441,0.0273 c -0.22197,0.62867 -0.45049,1.25501 -0.68555,1.8789 l 13.689448,4.44922 0.61719,-1.90234 z m -179.029301,9.34765 -13.171871,5.86524 0.81445,1.82617 13.173828,-5.86524 c -0.27849,-0.60586 -0.550641,-1.21462 -0.816407,-1.82617 z m 175.519531,0.0312 c -0.28343,0.603271 -0.57316,1.203561 -0.86914,1.80078 l 13.158198,5.85938 0.81446,-1.82617 z m -165.703124,17.375 -11.669922,8.47852 1.175781,1.61719 11.65625,-8.46875 c -0.393024,-0.53826 -0.780415,-1.08061 -1.162109,-1.62696 z m 155.859374,0.0293 c -0.39809,0.534799 -0.80176,1.065429 -1.21094,1.5918 l 11.66407,8.47461 1.17578,-1.61719 z m -149.646484,7.81055 -10.71875,9.65234 1.337891,1.48633 10.701172,-9.63477 c -0.445334,-0.49668 -0.885462,-0.99801 -1.320313,-1.5039 z m 143.417974,0.0234 c -0.44931,0.49302 -0.90377,0.98133 -1.36329,1.46485 l 10.71875,9.65039 1.33789,-1.48633 z m -136.417974,7.12696 -9.652344,10.71679 1.486329,1.33985 9.628906,-10.69336 c -0.492365,-0.44932 -0.980022,-0.90377 -1.462891,-1.36328 z m 129.406254,0.0156 c -0.49604,0.44532 -0.99672,0.88545 -1.50196,1.32031 l 9.65235,10.72071 1.48633,-1.33985 z m -121.699222,6.36332 -8.476563,11.66602 1.619141,1.17578 8.449218,-11.63086 c -0.534802,-0.39809 -1.06543,-0.801761 -1.591796,-1.21094 z m 113.984372,0.008 c -0.53825,0.39368 -1.08059,0.78172 -1.62695,1.16406 l 8.47852,11.66974 1.61914,-1.17578 z m -17.20508,10.1621 c -0.60586,0.27849 -1.21462,0.55064 -1.82617,0.81641 l 5.86328,13.171879 1.82813,-0.8125 z m -79.585933,0.0156 -5.859375,13.160159 1.828125,0.8125 5.832031,-13.101569 c -0.603279,-0.28408 -1.203572,-0.57446 -1.800781,-0.87109 z m 70.281253,3.66406 c -0.6306,0.2169 -1.26345,0.42719 -1.89844,0.63086 l 4.45312,13.707029 1.90235,-0.61914 z m -60.980472,0.0312 -4.447266,13.687499 1.902344,0.61914 4.425782,-13.621089 c -0.629326,-0.22195 -1.256314,-0.45048 -1.88086,-0.68555 z m 51.343752,2.66016 c -0.64885,0.15262 -1.29927,0.29847 -1.95117,0.4375 l 2.99414,14.087889 1.95703,-0.41602 z m -41.707033,0.043 -2.990235,14.066399 1.957032,0.41602 2.974606,-13.998049 c -0.6488,-0.15469 -1.295974,-0.31615 -1.941403,-0.48437 z m 31.843753,1.62695 c -0.66125,0.087 -1.3234,0.16708 -1.98633,0.24024 l 1.5039,14.312499 1.99024,-0.20899 z m -21.97657,0.0566 -1.50195,14.287109 1.99024,0.20899 1.49804,-14.251959 c -0.66294,-0.0744 -1.32509,-0.15584 -1.98633,-0.24414 z"
       id="ticks_minute"
       inkscape:connector-curvature="0" />
    <g
       id="group_hour"
       transform="rotate(10)">
      <path
         d="m 0,0 0,70"
         id="hand_hour"
         style="stroke:#000000;stroke-width:6;stroke-linecap:butt" />
    </g>
    <g
       id="group_minute"
       inkscape:label="#g4292"
       transform="rotate(20)">
      <path
         d="m 0,0 0,84"
         id="hand_minute"
         style="stroke:#000000;stroke-width:4;stroke-linecap:butt" />
    </g>
    <g
       id="group_second"
       inkscape:label="#g4295"
       transform="rotate(30)">
      <path
         d="m 0,0 0,88"
         id="hand_second"
         style="stroke:#ff0000;stroke-width:2;stroke-linecap:butt" />
    </g>
    <path
       id="ticks_hour"
       style="fill:#000000;stroke:none;opacity:1"
       d="m -80.187431,40.980497 4,6.9282 -17.32051,10 -4,-6.9282 z m 121.4782,38.4064 6.92821,-4 10,17.320501 -6.92821,4 z m 51.72689,-138.40642 4,6.92822 -17.32051,10 -4,-6.9282 z m -151.72688,-34.79868 6.92821,-4 10,17.32051 -6.92821,4 z m -17.26868,44.6962 -4,6.9282 -17.32053,-10 4,-6.92815 z m 27.47815,124.4063 6.92825,4 -10,17.320501 -6.92825,-4 z m 145.72689,-24.4064 -4,6.9282 -17.32051,-10 4,-6.9282 z m -45.72684,-148.79861 6.9282,4 -10,17.32051 -6.9282,-4 z m -141.55182,93.4955099 0,8 -20,0 0,-8 z m 86,94 8,0 0,20 -8,0 z M 109.94848,-4.4252031 l 0,8 -20,0 0,-8 z M -4.0515212,-110.4252 l 8,0 0,20 -8,0 z"
       inkscape:label="#ticks" />
    <circle
       style="fill:#000000;stroke:none"
       id="circle4140"
       cy="0"
       cx="0"
       r="6" />
  </g>
</svg>
