<svg xmlns="http://www.w3.org/2000/svg" xmlns:cc="http://creativecommons.org/ns#" xmlns:dc="http://purl.org/dc/elements/1.1/" xmlns:rdf="http://www.w3.org/1999/02/22-rdf-syntax-ns#" xmlns:xlink="http://www.w3.org/1999/xlink" height="1000" id="svg" version="1.1" viewBox="0 0 2600 1240" width="1000">
  <metadata id="metadata1472">
    <rdf:RDF>
      <cc:Work rdf:about="">
        <dc:format>image/svg+xml</dc:format>
        <dc:type rdf:resource="http://purl.org/dc/dcmitype/StillImage" />
        <dc:title />
      </cc:Work>
    </rdf:RDF>
  </metadata>
  <style>
    .border { fill:#ffffff;stroke:#000000;stroke-width:3; }
    .label { font-size:45px;font-family:serif;font-weight:bold;text-align:center;text-anchor:middle;cursor:default; }
    .face { font-size:150px;font-family:serif;text-align:center;text-anchor:middle;cursor:default; }
    #back_rect { fill:#c0c0ff;stroke:#000000;stroke-width:1; }
    .black { fill: #000000; }
    .red { fill: #dd0000; }
  </style>
  <defs id="defs">
    <path d="M 18.313 0 C 7.791 8.606 5.484 11.482 -0 23.953 -5.483 11.482 -7.79 8.606 -18.313 0 -7.79 -8.605 -5.483 -11.482 -0 -23.953 5.484 -11.482 7.791 -8.605 18.313 0 Z" id="diamond" style="fill:#dd0000" />
    <path d="M -0 21.121 C -8.909 5.442 -20.731 -3.893 -20.639 -9.894 c 0.092 -5.791 4.37 -11.227 10.236 -11.227 6.092 0 9.77 4.839 10.403 11.144 C 0.633 -16.282 4.311 -21.121 10.403 -21.121 c 5.866 0 10.144 5.436 10.236 11.227 0.092 6.001 -11.73 15.336 -20.639 31.015 z" id="heart" style="fill:#dd0000" />
    <path d="M 0.669,9.0 c 1.45,4.5 4.837,7.624 9.735,7.624 5.866,0 10.142,-5.44 10.234,-11.232 C 20.639,-3.48 8.909,-9.922 0,-25.602 -8.909,-9.922 -20.639,-3.4806564 -20.639,5.402 c 0.092,5.792 4.368,11.232 10.234,11.232 4.898,0 8.282,-3.119 9.733,-7.622 0,7.518 -0.854,13.687 -2.572,16.583 l 6.486,0 C 1.525,22.7 0.67,16.53 0.67,9.011 Z" id="spade" style="fill:#000000" />
    <path d="M 0.7459 7.3652 c 0.047 -1.276 0.094 -2.551 0.141 -3.826 1.664 0.679 1.512 2.624 1.751 4.094 0.797 4.647 4.955 8.813 9.863 8.528 5.233 -0.19 9.149 -5.181 9.302 -10.192 0.378 -5.23 -3.261 -10.858 -8.732 -11.431 -3.857 -0.482 -7.534 1.935 -9.339 5.238 -0.392 0.858 -2.9 1.427 -2.245 -0.055 0.578 -1.931 2.991 -1.847 4.221 -3.187 5.406 -4.307 5.265 -13.623 -0.298 -17.733 -3.526 -2.853 -9.09 -2.29 -12.065 1.1 -4.589 4.691 -3.916 13.38 1.549 17.106 1.233 1.006 3.536 1.098 3.652 3.09 0.036 1.185 -2.371 0.221 -2.579 -0.731 -2.162 -3.945 -7.341 -6.098 -11.548 -4.165 -5.892 2.489 -7.893 10.421 -4.814 15.784 2.091 4.197 7.556 6.514 11.901 4.394 3.826 -1.694 5.994 -5.872 6.107 -9.924 0.052 -1.189 1.936 -2.791 1.553 -0.776 0.367 5.065 0.127 10.233 -1.143 15.163 0.108 1.052 -2.357 3.533 -0.165 3.149 1.732 0 3.464 0 5.196 0 -0.721 -2.496 -1.892 -5.367 -2.022 -8.184 C 0.7639 12.3362 0.7419 9.8472 0.7459 7.3652 Z" id="club" style="fill:#000000" />
    <use xlink:href="#diamond" id="diamond_s" transform="scale(0.5)" />
    <use xlink:href="#heart" id="heart_s" transform="scale(0.5)" />
    <use xlink:href="#spade" id="spade_s" transform="scale(0.5)" />
    <use xlink:href="#club" id="club_s" transform="scale(0.5)" />
  <rect class="border" height="310" id="border" rx="10" ry="10" width="200" /><g id="back"><use xlink:href="#border" /><rect height="260" id="back_rect" rx="10" ry="10" width="150" x="25" y="25" /></g><text class="label" id="label_A" transform="translate(20,45) scale(0.9,1)">A</text><text class="label" id="label_2" transform="translate(20,45) scale(0.9,1)">2</text><text class="label" id="label_3" transform="translate(20,45) scale(0.9,1)">3</text><text class="label" id="label_4" transform="translate(20,45) scale(0.9,1)">4</text><text class="label" id="label_5" transform="translate(20,45) scale(0.9,1)">5</text><text class="label" id="label_6" transform="translate(20,45) scale(0.9,1)">6</text><text class="label" id="label_7" transform="translate(20,45) scale(0.9,1)">7</text><text class="label" id="label_8" transform="translate(20,45) scale(0.9,1)">8</text><text class="label" id="label_9" transform="translate(20,45) scale(0.9,1)">9</text><text class="label" id="label_10" transform="translate(20,45) scale(0.7,1)">10</text><text class="label" id="label_J" transform="translate(20,45) scale(0.9,1)">J</text><text class="label" id="label_Q" transform="translate(20,45) scale(0.9,1)">Q</text><text class="label" id="label_K" transform="translate(20,45) scale(0.9,1)">K</text><text class="face" id="face_J" transform="translate(100,200)">J</text><text class="face" id="face_Q" transform="translate(100,200)">Q</text><text class="face" id="face_K" transform="translate(100,200)">K</text><g id="club_1"><use xlink:href="#border" /><use xlink:href="#club" transform="translate(100,155)" /><use xlink:href="#label_A" class="black" /><use xlink:href="#label_A" class="black" transform="translate(200,310) rotate(180)" /><use xlink:href="#club_s" transform="translate(20,65)" /><use xlink:href="#club_s" transform="translate(200,310) rotate(180) translate(20,65)" /></g><g id="club_2"><use xlink:href="#border" /><use xlink:href="#club" transform="translate(100,65)" /><use xlink:href="#club" transform="translate(100,245) rotate(180)" /><use xlink:href="#label_2" class="black" /><use xlink:href="#label_2" class="black" transform="translate(200,310) rotate(180)" /><use xlink:href="#club_s" transform="translate(20,65)" /><use xlink:href="#club_s" transform="translate(200,310) rotate(180) translate(20,65)" /></g><g id="club_3"><use xlink:href="#border" /><use xlink:href="#club" transform="translate(100,65)" /><use xlink:href="#club" transform="translate(100,155)" /><use xlink:href="#club" transform="translate(100,245) rotate(180)" /><use xlink:href="#label_3" class="black" /><use xlink:href="#label_3" class="black" transform="translate(200,310) rotate(180)" /><use xlink:href="#club_s" transform="translate(20,65)" /><use xlink:href="#club_s" transform="translate(200,310) rotate(180) translate(20,65)" /></g><g id="club_4"><use xlink:href="#border" /><use xlink:href="#club" transform="translate(60,65)" /><use xlink:href="#club" transform="translate(140,65)" /><use xlink:href="#club" transform="translate(60,245) rotate(180)" /><use xlink:href="#club" transform="translate(140,245) rotate(180)" /><use xlink:href="#label_4" class="black" /><use xlink:href="#label_4" class="black" transform="translate(200,310) rotate(180)" /><use xlink:href="#club_s" transform="translate(20,65)" /><use xlink:href="#club_s" transform="translate(200,310) rotate(180) translate(20,65)" /></g><g id="club_5"><use xlink:href="#border" /><use xlink:href="#club" transform="translate(60,65)" /><use xlink:href="#club" transform="translate(140,65)" /><use xlink:href="#club" transform="translate(100,155)" /><use xlink:href="#club" transform="translate(60,245) rotate(180)" /><use xlink:href="#club" transform="translate(140,245) rotate(180)" /><use xlink:href="#label_5" class="black" /><use xlink:href="#label_5" class="black" transform="translate(200,310) rotate(180)" /><use xlink:href="#club_s" transform="translate(20,65)" /><use xlink:href="#club_s" transform="translate(200,310) rotate(180) translate(20,65)" /></g><g id="club_6"><use xlink:href="#border" /><use xlink:href="#club" transform="translate(60,65)" /><use xlink:href="#club" transform="translate(140,65)" /><use xlink:href="#club" transform="translate(60,155)" /><use xlink:href="#club" transform="translate(140,155)" /><use xlink:href="#club" transform="translate(60,245) rotate(180)" /><use xlink:href="#club" transform="translate(140,245) rotate(180)" /><use xlink:href="#label_6" class="black" /><use xlink:href="#label_6" class="black" transform="translate(200,310) rotate(180)" /><use xlink:href="#club_s" transform="translate(20,65)" /><use xlink:href="#club_s" transform="translate(200,310) rotate(180) translate(20,65)" /></g><g id="club_7"><use xlink:href="#border" /><use xlink:href="#club" transform="translate(60,65)" /><use xlink:href="#club" transform="translate(140,65)" /><use xlink:href="#club" transform="translate(100,110)" /><use xlink:href="#club" transform="translate(60,155)" /><use xlink:href="#club" transform="translate(140,155)" /><use xlink:href="#club" transform="translate(60,245) rotate(180)" /><use xlink:href="#club" transform="translate(140,245) rotate(180)" /><use xlink:href="#label_7" class="black" /><use xlink:href="#label_7" class="black" transform="translate(200,310) rotate(180)" /><use xlink:href="#club_s" transform="translate(20,65)" /><use xlink:href="#club_s" transform="translate(200,310) rotate(180) translate(20,65)" /></g><g id="club_8"><use xlink:href="#border" /><use xlink:href="#club" transform="translate(60,65)" /><use xlink:href="#club" transform="translate(140,65)" /><use xlink:href="#club" transform="translate(60,125)" /><use xlink:href="#club" transform="translate(140,125)" /><use xlink:href="#club" transform="translate(60,185) rotate(180)" /><use xlink:href="#club" transform="translate(140,185) rotate(180)" /><use xlink:href="#club" transform="translate(60,245) rotate(180)" /><use xlink:href="#club" transform="translate(140,245) rotate(180)" /><use xlink:href="#label_8" class="black" /><use xlink:href="#label_8" class="black" transform="translate(200,310) rotate(180)" /><use xlink:href="#club_s" transform="translate(20,65)" /><use xlink:href="#club_s" transform="translate(200,310) rotate(180) translate(20,65)" /></g><g id="club_9"><use xlink:href="#border" /><use xlink:href="#club" transform="translate(60,65)" /><use xlink:href="#club" transform="translate(140,65)" /><use xlink:href="#club" transform="translate(100,95)" /><use xlink:href="#club" transform="translate(60,125)" /><use xlink:href="#club" transform="translate(140,125)" /><use xlink:href="#club" transform="translate(60,185) rotate(180)" /><use xlink:href="#club" transform="translate(140,185) rotate(180)" /><use xlink:href="#club" transform="translate(60,245) rotate(180)" /><use xlink:href="#club" transform="translate(140,245) rotate(180)" /><use xlink:href="#label_9" class="black" /><use xlink:href="#label_9" class="black" transform="translate(200,310) rotate(180)" /><use xlink:href="#club_s" transform="translate(20,65)" /><use xlink:href="#club_s" transform="translate(200,310) rotate(180) translate(20,65)" /></g><g id="club_10"><use xlink:href="#border" /><use xlink:href="#club" transform="translate(60,65)" /><use xlink:href="#club" transform="translate(140,65)" /><use xlink:href="#club" transform="translate(100,95)" /><use xlink:href="#club" transform="translate(60,125)" /><use xlink:href="#club" transform="translate(140,125)" /><use xlink:href="#club" transform="translate(60,185) rotate(180)" /><use xlink:href="#club" transform="translate(140,185) rotate(180)" /><use xlink:href="#club" transform="translate(100,215) rotate(180)" /><use xlink:href="#club" transform="translate(60,245) rotate(180)" /><use xlink:href="#club" transform="translate(140,245) rotate(180)" /><use xlink:href="#label_10" class="black" /><use xlink:href="#label_10" class="black" transform="translate(200,310) rotate(180)" /><use xlink:href="#club_s" transform="translate(20,65)" /><use xlink:href="#club_s" transform="translate(200,310) rotate(180) translate(20,65)" /></g><g id="club_jack"><use xlink:href="#border" /><use xlink:href="#club" transform="translate(60,65)" /><use xlink:href="#club" transform="translate(140,245) rotate(180)" /><use xlink:href="#label_J" class="black" /><use xlink:href="#label_J" class="black" transform="translate(200,310) rotate(180)" /><use xlink:href="#club_s" transform="translate(20,65)" /><use xlink:href="#club_s" transform="translate(200,310) rotate(180) translate(20,65)" /><use xlink:href="#face_J" class="black" /></g><g id="club_queen"><use xlink:href="#border" /><use xlink:href="#club" transform="translate(60,65)" /><use xlink:href="#club" transform="translate(140,245) rotate(180)" /><use xlink:href="#label_Q" class="black" /><use xlink:href="#label_Q" class="black" transform="translate(200,310) rotate(180)" /><use xlink:href="#club_s" transform="translate(20,65)" /><use xlink:href="#club_s" transform="translate(200,310) rotate(180) translate(20,65)" /><use xlink:href="#face_Q" class="black" /></g><g id="club_king"><use xlink:href="#border" /><use xlink:href="#club" transform="translate(60,65)" /><use xlink:href="#club" transform="translate(140,245) rotate(180)" /><use xlink:href="#label_K" class="black" /><use xlink:href="#label_K" class="black" transform="translate(200,310) rotate(180)" /><use xlink:href="#club_s" transform="translate(20,65)" /><use xlink:href="#club_s" transform="translate(200,310) rotate(180) translate(20,65)" /><use xlink:href="#face_K" class="black" /></g><g id="diamond_1"><use xlink:href="#border" /><use xlink:href="#diamond" transform="translate(100,155)" /><use xlink:href="#label_A" class="red" /><use xlink:href="#label_A" class="red" transform="translate(200,310) rotate(180)" /><use xlink:href="#diamond_s" transform="translate(20,65)" /><use xlink:href="#diamond_s" transform="translate(200,310) rotate(180) translate(20,65)" /></g><g id="diamond_2"><use xlink:href="#border" /><use xlink:href="#diamond" transform="translate(100,65)" /><use xlink:href="#diamond" transform="translate(100,245) rotate(180)" /><use xlink:href="#label_2" class="red" /><use xlink:href="#label_2" class="red" transform="translate(200,310) rotate(180)" /><use xlink:href="#diamond_s" transform="translate(20,65)" /><use xlink:href="#diamond_s" transform="translate(200,310) rotate(180) translate(20,65)" /></g><g id="diamond_3"><use xlink:href="#border" /><use xlink:href="#diamond" transform="translate(100,65)" /><use xlink:href="#diamond" transform="translate(100,155)" /><use xlink:href="#diamond" transform="translate(100,245) rotate(180)" /><use xlink:href="#label_3" class="red" /><use xlink:href="#label_3" class="red" transform="translate(200,310) rotate(180)" /><use xlink:href="#diamond_s" transform="translate(20,65)" /><use xlink:href="#diamond_s" transform="translate(200,310) rotate(180) translate(20,65)" /></g><g id="diamond_4"><use xlink:href="#border" /><use xlink:href="#diamond" transform="translate(60,65)" /><use xlink:href="#diamond" transform="translate(140,65)" /><use xlink:href="#diamond" transform="translate(60,245) rotate(180)" /><use xlink:href="#diamond" transform="translate(140,245) rotate(180)" /><use xlink:href="#label_4" class="red" /><use xlink:href="#label_4" class="red" transform="translate(200,310) rotate(180)" /><use xlink:href="#diamond_s" transform="translate(20,65)" /><use xlink:href="#diamond_s" transform="translate(200,310) rotate(180) translate(20,65)" /></g><g id="diamond_5"><use xlink:href="#border" /><use xlink:href="#diamond" transform="translate(60,65)" /><use xlink:href="#diamond" transform="translate(140,65)" /><use xlink:href="#diamond" transform="translate(100,155)" /><use xlink:href="#diamond" transform="translate(60,245) rotate(180)" /><use xlink:href="#diamond" transform="translate(140,245) rotate(180)" /><use xlink:href="#label_5" class="red" /><use xlink:href="#label_5" class="red" transform="translate(200,310) rotate(180)" /><use xlink:href="#diamond_s" transform="translate(20,65)" /><use xlink:href="#diamond_s" transform="translate(200,310) rotate(180) translate(20,65)" /></g><g id="diamond_6"><use xlink:href="#border" /><use xlink:href="#diamond" transform="translate(60,65)" /><use xlink:href="#diamond" transform="translate(140,65)" /><use xlink:href="#diamond" transform="translate(60,155)" /><use xlink:href="#diamond" transform="translate(140,155)" /><use xlink:href="#diamond" transform="translate(60,245) rotate(180)" /><use xlink:href="#diamond" transform="translate(140,245) rotate(180)" /><use xlink:href="#label_6" class="red" /><use xlink:href="#label_6" class="red" transform="translate(200,310) rotate(180)" /><use xlink:href="#diamond_s" transform="translate(20,65)" /><use xlink:href="#diamond_s" transform="translate(200,310) rotate(180) translate(20,65)" /></g><g id="diamond_7"><use xlink:href="#border" /><use xlink:href="#diamond" transform="translate(60,65)" /><use xlink:href="#diamond" transform="translate(140,65)" /><use xlink:href="#diamond" transform="translate(100,110)" /><use xlink:href="#diamond" transform="translate(60,155)" /><use xlink:href="#diamond" transform="translate(140,155)" /><use xlink:href="#diamond" transform="translate(60,245) rotate(180)" /><use xlink:href="#diamond" transform="translate(140,245) rotate(180)" /><use xlink:href="#label_7" class="red" /><use xlink:href="#label_7" class="red" transform="translate(200,310) rotate(180)" /><use xlink:href="#diamond_s" transform="translate(20,65)" /><use xlink:href="#diamond_s" transform="translate(200,310) rotate(180) translate(20,65)" /></g><g id="diamond_8"><use xlink:href="#border" /><use xlink:href="#diamond" transform="translate(60,65)" /><use xlink:href="#diamond" transform="translate(140,65)" /><use xlink:href="#diamond" transform="translate(60,125)" /><use xlink:href="#diamond" transform="translate(140,125)" /><use xlink:href="#diamond" transform="translate(60,185) rotate(180)" /><use xlink:href="#diamond" transform="translate(140,185) rotate(180)" /><use xlink:href="#diamond" transform="translate(60,245) rotate(180)" /><use xlink:href="#diamond" transform="translate(140,245) rotate(180)" /><use xlink:href="#label_8" class="red" /><use xlink:href="#label_8" class="red" transform="translate(200,310) rotate(180)" /><use xlink:href="#diamond_s" transform="translate(20,65)" /><use xlink:href="#diamond_s" transform="translate(200,310) rotate(180) translate(20,65)" /></g><g id="diamond_9"><use xlink:href="#border" /><use xlink:href="#diamond" transform="translate(60,65)" /><use xlink:href="#diamond" transform="translate(140,65)" /><use xlink:href="#diamond" transform="translate(100,95)" /><use xlink:href="#diamond" transform="translate(60,125)" /><use xlink:href="#diamond" transform="translate(140,125)" /><use xlink:href="#diamond" transform="translate(60,185) rotate(180)" /><use xlink:href="#diamond" transform="translate(140,185) rotate(180)" /><use xlink:href="#diamond" transform="translate(60,245) rotate(180)" /><use xlink:href="#diamond" transform="translate(140,245) rotate(180)" /><use xlink:href="#label_9" class="red" /><use xlink:href="#label_9" class="red" transform="translate(200,310) rotate(180)" /><use xlink:href="#diamond_s" transform="translate(20,65)" /><use xlink:href="#diamond_s" transform="translate(200,310) rotate(180) translate(20,65)" /></g><g id="diamond_10"><use xlink:href="#border" /><use xlink:href="#diamond" transform="translate(60,65)" /><use xlink:href="#diamond" transform="translate(140,65)" /><use xlink:href="#diamond" transform="translate(100,95)" /><use xlink:href="#diamond" transform="translate(60,125)" /><use xlink:href="#diamond" transform="translate(140,125)" /><use xlink:href="#diamond" transform="translate(60,185) rotate(180)" /><use xlink:href="#diamond" transform="translate(140,185) rotate(180)" /><use xlink:href="#diamond" transform="translate(100,215) rotate(180)" /><use xlink:href="#diamond" transform="translate(60,245) rotate(180)" /><use xlink:href="#diamond" transform="translate(140,245) rotate(180)" /><use xlink:href="#label_10" class="red" /><use xlink:href="#label_10" class="red" transform="translate(200,310) rotate(180)" /><use xlink:href="#diamond_s" transform="translate(20,65)" /><use xlink:href="#diamond_s" transform="translate(200,310) rotate(180) translate(20,65)" /></g><g id="diamond_jack"><use xlink:href="#border" /><use xlink:href="#diamond" transform="translate(60,65)" /><use xlink:href="#diamond" transform="translate(140,245) rotate(180)" /><use xlink:href="#label_J" class="red" /><use xlink:href="#label_J" class="red" transform="translate(200,310) rotate(180)" /><use xlink:href="#diamond_s" transform="translate(20,65)" /><use xlink:href="#diamond_s" transform="translate(200,310) rotate(180) translate(20,65)" /><use xlink:href="#face_J" class="red" /></g><g id="diamond_queen"><use xlink:href="#border" /><use xlink:href="#diamond" transform="translate(60,65)" /><use xlink:href="#diamond" transform="translate(140,245) rotate(180)" /><use xlink:href="#label_Q" class="red" /><use xlink:href="#label_Q" class="red" transform="translate(200,310) rotate(180)" /><use xlink:href="#diamond_s" transform="translate(20,65)" /><use xlink:href="#diamond_s" transform="translate(200,310) rotate(180) translate(20,65)" /><use xlink:href="#face_Q" class="red" /></g><g id="diamond_king"><use xlink:href="#border" /><use xlink:href="#diamond" transform="translate(60,65)" /><use xlink:href="#diamond" transform="translate(140,245) rotate(180)" /><use xlink:href="#label_K" class="red" /><use xlink:href="#label_K" class="red" transform="translate(200,310) rotate(180)" /><use xlink:href="#diamond_s" transform="translate(20,65)" /><use xlink:href="#diamond_s" transform="translate(200,310) rotate(180) translate(20,65)" /><use xlink:href="#face_K" class="red" /></g><g id="heart_1"><use xlink:href="#border" /><use xlink:href="#heart" transform="translate(100,155)" /><use xlink:href="#label_A" class="red" /><use xlink:href="#label_A" class="red" transform="translate(200,310) rotate(180)" /><use xlink:href="#heart_s" transform="translate(20,65)" /><use xlink:href="#heart_s" transform="translate(200,310) rotate(180) translate(20,65)" /></g><g id="heart_2"><use xlink:href="#border" /><use xlink:href="#heart" transform="translate(100,65)" /><use xlink:href="#heart" transform="translate(100,245) rotate(180)" /><use xlink:href="#label_2" class="red" /><use xlink:href="#label_2" class="red" transform="translate(200,310) rotate(180)" /><use xlink:href="#heart_s" transform="translate(20,65)" /><use xlink:href="#heart_s" transform="translate(200,310) rotate(180) translate(20,65)" /></g><g id="heart_3"><use xlink:href="#border" /><use xlink:href="#heart" transform="translate(100,65)" /><use xlink:href="#heart" transform="translate(100,155)" /><use xlink:href="#heart" transform="translate(100,245) rotate(180)" /><use xlink:href="#label_3" class="red" /><use xlink:href="#label_3" class="red" transform="translate(200,310) rotate(180)" /><use xlink:href="#heart_s" transform="translate(20,65)" /><use xlink:href="#heart_s" transform="translate(200,310) rotate(180) translate(20,65)" /></g><g id="heart_4"><use xlink:href="#border" /><use xlink:href="#heart" transform="translate(60,65)" /><use xlink:href="#heart" transform="translate(140,65)" /><use xlink:href="#heart" transform="translate(60,245) rotate(180)" /><use xlink:href="#heart" transform="translate(140,245) rotate(180)" /><use xlink:href="#label_4" class="red" /><use xlink:href="#label_4" class="red" transform="translate(200,310) rotate(180)" /><use xlink:href="#heart_s" transform="translate(20,65)" /><use xlink:href="#heart_s" transform="translate(200,310) rotate(180) translate(20,65)" /></g><g id="heart_5"><use xlink:href="#border" /><use xlink:href="#heart" transform="translate(60,65)" /><use xlink:href="#heart" transform="translate(140,65)" /><use xlink:href="#heart" transform="translate(100,155)" /><use xlink:href="#heart" transform="translate(60,245) rotate(180)" /><use xlink:href="#heart" transform="translate(140,245) rotate(180)" /><use xlink:href="#label_5" class="red" /><use xlink:href="#label_5" class="red" transform="translate(200,310) rotate(180)" /><use xlink:href="#heart_s" transform="translate(20,65)" /><use xlink:href="#heart_s" transform="translate(200,310) rotate(180) translate(20,65)" /></g><g id="heart_6"><use xlink:href="#border" /><use xlink:href="#heart" transform="translate(60,65)" /><use xlink:href="#heart" transform="translate(140,65)" /><use xlink:href="#heart" transform="translate(60,155)" /><use xlink:href="#heart" transform="translate(140,155)" /><use xlink:href="#heart" transform="translate(60,245) rotate(180)" /><use xlink:href="#heart" transform="translate(140,245) rotate(180)" /><use xlink:href="#label_6" class="red" /><use xlink:href="#label_6" class="red" transform="translate(200,310) rotate(180)" /><use xlink:href="#heart_s" transform="translate(20,65)" /><use xlink:href="#heart_s" transform="translate(200,310) rotate(180) translate(20,65)" /></g><g id="heart_7"><use xlink:href="#border" /><use xlink:href="#heart" transform="translate(60,65)" /><use xlink:href="#heart" transform="translate(140,65)" /><use xlink:href="#heart" transform="translate(100,110)" /><use xlink:href="#heart" transform="translate(60,155)" /><use xlink:href="#heart" transform="translate(140,155)" /><use xlink:href="#heart" transform="translate(60,245) rotate(180)" /><use xlink:href="#heart" transform="translate(140,245) rotate(180)" /><use xlink:href="#label_7" class="red" /><use xlink:href="#label_7" class="red" transform="translate(200,310) rotate(180)" /><use xlink:href="#heart_s" transform="translate(20,65)" /><use xlink:href="#heart_s" transform="translate(200,310) rotate(180) translate(20,65)" /></g><g id="heart_8"><use xlink:href="#border" /><use xlink:href="#heart" transform="translate(60,65)" /><use xlink:href="#heart" transform="translate(140,65)" /><use xlink:href="#heart" transform="translate(60,125)" /><use xlink:href="#heart" transform="translate(140,125)" /><use xlink:href="#heart" transform="translate(60,185) rotate(180)" /><use xlink:href="#heart" transform="translate(140,185) rotate(180)" /><use xlink:href="#heart" transform="translate(60,245) rotate(180)" /><use xlink:href="#heart" transform="translate(140,245) rotate(180)" /><use xlink:href="#label_8" class="red" /><use xlink:href="#label_8" class="red" transform="translate(200,310) rotate(180)" /><use xlink:href="#heart_s" transform="translate(20,65)" /><use xlink:href="#heart_s" transform="translate(200,310) rotate(180) translate(20,65)" /></g><g id="heart_9"><use xlink:href="#border" /><use xlink:href="#heart" transform="translate(60,65)" /><use xlink:href="#heart" transform="translate(140,65)" /><use xlink:href="#heart" transform="translate(100,95)" /><use xlink:href="#heart" transform="translate(60,125)" /><use xlink:href="#heart" transform="translate(140,125)" /><use xlink:href="#heart" transform="translate(60,185) rotate(180)" /><use xlink:href="#heart" transform="translate(140,185) rotate(180)" /><use xlink:href="#heart" transform="translate(60,245) rotate(180)" /><use xlink:href="#heart" transform="translate(140,245) rotate(180)" /><use xlink:href="#label_9" class="red" /><use xlink:href="#label_9" class="red" transform="translate(200,310) rotate(180)" /><use xlink:href="#heart_s" transform="translate(20,65)" /><use xlink:href="#heart_s" transform="translate(200,310) rotate(180) translate(20,65)" /></g><g id="heart_10"><use xlink:href="#border" /><use xlink:href="#heart" transform="translate(60,65)" /><use xlink:href="#heart" transform="translate(140,65)" /><use xlink:href="#heart" transform="translate(100,95)" /><use xlink:href="#heart" transform="translate(60,125)" /><use xlink:href="#heart" transform="translate(140,125)" /><use xlink:href="#heart" transform="translate(60,185) rotate(180)" /><use xlink:href="#heart" transform="translate(140,185) rotate(180)" /><use xlink:href="#heart" transform="translate(100,215) rotate(180)" /><use xlink:href="#heart" transform="translate(60,245) rotate(180)" /><use xlink:href="#heart" transform="translate(140,245) rotate(180)" /><use xlink:href="#label_10" class="red" /><use xlink:href="#label_10" class="red" transform="translate(200,310) rotate(180)" /><use xlink:href="#heart_s" transform="translate(20,65)" /><use xlink:href="#heart_s" transform="translate(200,310) rotate(180) translate(20,65)" /></g><g id="heart_jack"><use xlink:href="#border" /><use xlink:href="#heart" transform="translate(60,65)" /><use xlink:href="#heart" transform="translate(140,245) rotate(180)" /><use xlink:href="#label_J" class="red" /><use xlink:href="#label_J" class="red" transform="translate(200,310) rotate(180)" /><use xlink:href="#heart_s" transform="translate(20,65)" /><use xlink:href="#heart_s" transform="translate(200,310) rotate(180) translate(20,65)" /><use xlink:href="#face_J" class="red" /></g><g id="heart_queen"><use xlink:href="#border" /><use xlink:href="#heart" transform="translate(60,65)" /><use xlink:href="#heart" transform="translate(140,245) rotate(180)" /><use xlink:href="#label_Q" class="red" /><use xlink:href="#label_Q" class="red" transform="translate(200,310) rotate(180)" /><use xlink:href="#heart_s" transform="translate(20,65)" /><use xlink:href="#heart_s" transform="translate(200,310) rotate(180) translate(20,65)" /><use xlink:href="#face_Q" class="red" /></g><g id="heart_king"><use xlink:href="#border" /><use xlink:href="#heart" transform="translate(60,65)" /><use xlink:href="#heart" transform="translate(140,245) rotate(180)" /><use xlink:href="#label_K" class="red" /><use xlink:href="#label_K" class="red" transform="translate(200,310) rotate(180)" /><use xlink:href="#heart_s" transform="translate(20,65)" /><use xlink:href="#heart_s" transform="translate(200,310) rotate(180) translate(20,65)" /><use xlink:href="#face_K" class="red" /></g><g id="spade_1"><use xlink:href="#border" /><use xlink:href="#spade" transform="translate(100,155)" /><use xlink:href="#label_A" class="black" /><use xlink:href="#label_A" class="black" transform="translate(200,310) rotate(180)" /><use xlink:href="#spade_s" transform="translate(20,65)" /><use xlink:href="#spade_s" transform="translate(200,310) rotate(180) translate(20,65)" /></g><g id="spade_2"><use xlink:href="#border" /><use xlink:href="#spade" transform="translate(100,65)" /><use xlink:href="#spade" transform="translate(100,245) rotate(180)" /><use xlink:href="#label_2" class="black" /><use xlink:href="#label_2" class="black" transform="translate(200,310) rotate(180)" /><use xlink:href="#spade_s" transform="translate(20,65)" /><use xlink:href="#spade_s" transform="translate(200,310) rotate(180) translate(20,65)" /></g><g id="spade_3"><use xlink:href="#border" /><use xlink:href="#spade" transform="translate(100,65)" /><use xlink:href="#spade" transform="translate(100,155)" /><use xlink:href="#spade" transform="translate(100,245) rotate(180)" /><use xlink:href="#label_3" class="black" /><use xlink:href="#label_3" class="black" transform="translate(200,310) rotate(180)" /><use xlink:href="#spade_s" transform="translate(20,65)" /><use xlink:href="#spade_s" transform="translate(200,310) rotate(180) translate(20,65)" /></g><g id="spade_4"><use xlink:href="#border" /><use xlink:href="#spade" transform="translate(60,65)" /><use xlink:href="#spade" transform="translate(140,65)" /><use xlink:href="#spade" transform="translate(60,245) rotate(180)" /><use xlink:href="#spade" transform="translate(140,245) rotate(180)" /><use xlink:href="#label_4" class="black" /><use xlink:href="#label_4" class="black" transform="translate(200,310) rotate(180)" /><use xlink:href="#spade_s" transform="translate(20,65)" /><use xlink:href="#spade_s" transform="translate(200,310) rotate(180) translate(20,65)" /></g><g id="spade_5"><use xlink:href="#border" /><use xlink:href="#spade" transform="translate(60,65)" /><use xlink:href="#spade" transform="translate(140,65)" /><use xlink:href="#spade" transform="translate(100,155)" /><use xlink:href="#spade" transform="translate(60,245) rotate(180)" /><use xlink:href="#spade" transform="translate(140,245) rotate(180)" /><use xlink:href="#label_5" class="black" /><use xlink:href="#label_5" class="black" transform="translate(200,310) rotate(180)" /><use xlink:href="#spade_s" transform="translate(20,65)" /><use xlink:href="#spade_s" transform="translate(200,310) rotate(180) translate(20,65)" /></g><g id="spade_6"><use xlink:href="#border" /><use xlink:href="#spade" transform="translate(60,65)" /><use xlink:href="#spade" transform="translate(140,65)" /><use xlink:href="#spade" transform="translate(60,155)" /><use xlink:href="#spade" transform="translate(140,155)" /><use xlink:href="#spade" transform="translate(60,245) rotate(180)" /><use xlink:href="#spade" transform="translate(140,245) rotate(180)" /><use xlink:href="#label_6" class="black" /><use xlink:href="#label_6" class="black" transform="translate(200,310) rotate(180)" /><use xlink:href="#spade_s" transform="translate(20,65)" /><use xlink:href="#spade_s" transform="translate(200,310) rotate(180) translate(20,65)" /></g><g id="spade_7"><use xlink:href="#border" /><use xlink:href="#spade" transform="translate(60,65)" /><use xlink:href="#spade" transform="translate(140,65)" /><use xlink:href="#spade" transform="translate(100,110)" /><use xlink:href="#spade" transform="translate(60,155)" /><use xlink:href="#spade" transform="translate(140,155)" /><use xlink:href="#spade" transform="translate(60,245) rotate(180)" /><use xlink:href="#spade" transform="translate(140,245) rotate(180)" /><use xlink:href="#label_7" class="black" /><use xlink:href="#label_7" class="black" transform="translate(200,310) rotate(180)" /><use xlink:href="#spade_s" transform="translate(20,65)" /><use xlink:href="#spade_s" transform="translate(200,310) rotate(180) translate(20,65)" /></g><g id="spade_8"><use xlink:href="#border" /><use xlink:href="#spade" transform="translate(60,65)" /><use xlink:href="#spade" transform="translate(140,65)" /><use xlink:href="#spade" transform="translate(60,125)" /><use xlink:href="#spade" transform="translate(140,125)" /><use xlink:href="#spade" transform="translate(60,185) rotate(180)" /><use xlink:href="#spade" transform="translate(140,185) rotate(180)" /><use xlink:href="#spade" transform="translate(60,245) rotate(180)" /><use xlink:href="#spade" transform="translate(140,245) rotate(180)" /><use xlink:href="#label_8" class="black" /><use xlink:href="#label_8" class="black" transform="translate(200,310) rotate(180)" /><use xlink:href="#spade_s" transform="translate(20,65)" /><use xlink:href="#spade_s" transform="translate(200,310) rotate(180) translate(20,65)" /></g><g id="spade_9"><use xlink:href="#border" /><use xlink:href="#spade" transform="translate(60,65)" /><use xlink:href="#spade" transform="translate(140,65)" /><use xlink:href="#spade" transform="translate(100,95)" /><use xlink:href="#spade" transform="translate(60,125)" /><use xlink:href="#spade" transform="translate(140,125)" /><use xlink:href="#spade" transform="translate(60,185) rotate(180)" /><use xlink:href="#spade" transform="translate(140,185) rotate(180)" /><use xlink:href="#spade" transform="translate(60,245) rotate(180)" /><use xlink:href="#spade" transform="translate(140,245) rotate(180)" /><use xlink:href="#label_9" class="black" /><use xlink:href="#label_9" class="black" transform="translate(200,310) rotate(180)" /><use xlink:href="#spade_s" transform="translate(20,65)" /><use xlink:href="#spade_s" transform="translate(200,310) rotate(180) translate(20,65)" /></g><g id="spade_10"><use xlink:href="#border" /><use xlink:href="#spade" transform="translate(60,65)" /><use xlink:href="#spade" transform="translate(140,65)" /><use xlink:href="#spade" transform="translate(100,95)" /><use xlink:href="#spade" transform="translate(60,125)" /><use xlink:href="#spade" transform="translate(140,125)" /><use xlink:href="#spade" transform="translate(60,185) rotate(180)" /><use xlink:href="#spade" transform="translate(140,185) rotate(180)" /><use xlink:href="#spade" transform="translate(100,215) rotate(180)" /><use xlink:href="#spade" transform="translate(60,245) rotate(180)" /><use xlink:href="#spade" transform="translate(140,245) rotate(180)" /><use xlink:href="#label_10" class="black" /><use xlink:href="#label_10" class="black" transform="translate(200,310) rotate(180)" /><use xlink:href="#spade_s" transform="translate(20,65)" /><use xlink:href="#spade_s" transform="translate(200,310) rotate(180) translate(20,65)" /></g><g id="spade_jack"><use xlink:href="#border" /><use xlink:href="#spade" transform="translate(60,65)" /><use xlink:href="#spade" transform="translate(140,245) rotate(180)" /><use xlink:href="#label_J" class="black" /><use xlink:href="#label_J" class="black" transform="translate(200,310) rotate(180)" /><use xlink:href="#spade_s" transform="translate(20,65)" /><use xlink:href="#spade_s" transform="translate(200,310) rotate(180) translate(20,65)" /><use xlink:href="#face_J" class="black" /></g><g id="spade_queen"><use xlink:href="#border" /><use xlink:href="#spade" transform="translate(60,65)" /><use xlink:href="#spade" transform="translate(140,245) rotate(180)" /><use xlink:href="#label_Q" class="black" /><use xlink:href="#label_Q" class="black" transform="translate(200,310) rotate(180)" /><use xlink:href="#spade_s" transform="translate(20,65)" /><use xlink:href="#spade_s" transform="translate(200,310) rotate(180) translate(20,65)" /><use xlink:href="#face_Q" class="black" /></g><g id="spade_king"><use xlink:href="#border" /><use xlink:href="#spade" transform="translate(60,65)" /><use xlink:href="#spade" transform="translate(140,245) rotate(180)" /><use xlink:href="#label_K" class="black" /><use xlink:href="#label_K" class="black" transform="translate(200,310) rotate(180)" /><use xlink:href="#spade_s" transform="translate(20,65)" /><use xlink:href="#spade_s" transform="translate(200,310) rotate(180) translate(20,65)" /><use xlink:href="#face_K" class="black" /></g></defs>
<use xlink:href="#club_1" transform="translate(0,0)" /><use xlink:href="#club_2" transform="translate(200,0)" /><use xlink:href="#club_3" transform="translate(400,0)" /><use xlink:href="#club_4" transform="translate(600,0)" /><use xlink:href="#club_5" transform="translate(800,0)" /><use xlink:href="#club_6" transform="translate(1000,0)" /><use xlink:href="#club_7" transform="translate(1200,0)" /><use xlink:href="#club_8" transform="translate(1400,0)" /><use xlink:href="#club_9" transform="translate(1600,0)" /><use xlink:href="#club_10" transform="translate(1800,0)" /><use xlink:href="#club_jack" transform="translate(2000,0)" /><use xlink:href="#club_queen" transform="translate(2200,0)" /><use xlink:href="#club_king" transform="translate(2400,0)" /><use xlink:href="#diamond_1" transform="translate(0,310)" /><use xlink:href="#diamond_2" transform="translate(200,310)" /><use xlink:href="#diamond_3" transform="translate(400,310)" /><use xlink:href="#diamond_4" transform="translate(600,310)" /><use xlink:href="#diamond_5" transform="translate(800,310)" /><use xlink:href="#diamond_6" transform="translate(1000,310)" /><use xlink:href="#diamond_7" transform="translate(1200,310)" /><use xlink:href="#diamond_8" transform="translate(1400,310)" /><use xlink:href="#diamond_9" transform="translate(1600,310)" /><use xlink:href="#diamond_10" transform="translate(1800,310)" /><use xlink:href="#diamond_jack" transform="translate(2000,310)" /><use xlink:href="#diamond_queen" transform="translate(2200,310)" /><use xlink:href="#diamond_king" transform="translate(2400,310)" /><use xlink:href="#heart_1" transform="translate(0,620)" /><use xlink:href="#heart_2" transform="translate(200,620)" /><use xlink:href="#heart_3" transform="translate(400,620)" /><use xlink:href="#heart_4" transform="translate(600,620)" /><use xlink:href="#heart_5" transform="translate(800,620)" /><use xlink:href="#heart_6" transform="translate(1000,620)" /><use xlink:href="#heart_7" transform="translate(1200,620)" /><use xlink:href="#heart_8" transform="translate(1400,620)" /><use xlink:href="#heart_9" transform="translate(1600,620)" /><use xlink:href="#heart_10" transform="translate(1800,620)" /><use xlink:href="#heart_jack" transform="translate(2000,620)" /><use xlink:href="#heart_queen" transform="translate(2200,620)" /><use xlink:href="#heart_king" transform="translate(2400,620)" /><use xlink:href="#spade_1" transform="translate(0,930)" /><use xlink:href="#spade_2" transform="translate(200,930)" /><use xlink:href="#spade_3" transform="translate(400,930)" /><use xlink:href="#spade_4" transform="translate(600,930)" /><use xlink:href="#spade_5" transform="translate(800,930)" /><use xlink:href="#spade_6" transform="translate(1000,930)" /><use xlink:href="#spade_7" transform="translate(1200,930)" /><use xlink:href="#spade_8" transform="translate(1400,930)" /><use xlink:href="#spade_9" transform="translate(1600,930)" /><use xlink:href="#spade_10" transform="translate(1800,930)" /><use xlink:href="#spade_jack" transform="translate(2000,930)" /><use xlink:href="#spade_queen" transform="translate(2200,930)" /><use xlink:href="#spade_king" transform="translate(2400,930)" /></svg>