<?xml version="1.0" encoding="UTF-8" standalone="no"?>
<svg
   xmlns="http://www.w3.org/2000/svg"
   xmlns:dc="http://purl.org/dc/elements/1.1/"
   xmlns:cc="http://creativecommons.org/ns#"
   xmlns:rdf="http://www.w3.org/1999/02/22-rdf-syntax-ns#"
   xmlns:svg="http://www.w3.org/2000/svg"
   xmlns:xlink="http://www.w3.org/1999/xlink"
   viewBox="-50 0 2600 1550"
   externalResourcesRequired="true"
   id="spider"
   version="1.0"
   onload="startup(evt)" >
  <script
     xlink:href="spider.js"
     id="script1" />
  <defs
     id="defs1">
     <rect
         id="marker_rect"
         x="0.70866394"
         y="0.70863581"
         width="201.08269"
         height="313.5827"
         rx="8.6760731"
         ry="8.6760731"
         style="fill:#0000ff;fill-opacity:0.5;fill-rule:evenodd;stroke:#000000;stroke-width:3.0;stroke-linecap:round;stroke-linejoin:round"
         />
  </defs>
  <metadata
     id="metadata1">
    <rdf:RDF>
      <cc:Work
         rdf:about="">
        <dc:format>image/svg+xml</dc:format>
        <dc:type
           rdf:resource="http://purl.org/dc/dcmitype/StillImage" />
        <dc:title></dc:title>
      </cc:Work>
    </rdf:RDF>
  </metadata>
  <style>
    .border { fill:#ffffff; stroke:#000000; stroke-width:3; }
    .label { font-size:45px; font-family:serif; font-weight:bold; text-align:center; text-anchor:middle; cursor:default; }
    .face { font-size:150px; font-family:serif; text-align:center; text-anchor:middle; cursor:default; }
    .black { fill: #000000; }
    .red { fill: #dd0000; }
    #back_rect { fill:#c0c0ff; stroke:#000000; stroke-width:1; }
  </style>
  <g
     id="board"
     transform="translate(0,0)">
     <g
         id="undo_button"
         transform="translate(2000,1200)"
         >
     <rect
         id="undo_rect"
         x="0.70866394"
         y="0.70863581"
         width="201.08269"
         height="113.5827"
         rx="8.6760731"
         ry="8.6760731"
         style="fill:#00ff00;fill-opacity:0.5;fill-rule:evenodd;stroke:#000000;stroke-width:3.0"
         />
     <text
        style="font-size:60px;font-weight:bold;font-family:sans-serif;cursor:default;text-align:center;text-anchor:middle;"
        x="100"
        y="80"
        id="text2232">Undo</text>
     </g>
     <g
         id="new_button"
         transform="translate(2000,1400)"
         >
     <rect
         id="new_rect"
         x="0.70866394"
         y="0.70863581"
         width="201.08269"
         height="113.5827"
         rx="8.6760731"
         ry="8.6760731"
         style="fill:#ff0000;fill-opacity:0.5;fill-rule:evenodd;stroke:#000000;stroke-width:3.0"
         />
     <text
        style="font-size:50px;font-weight:bold;font-family:sans-serif;cursor:default;text-align:center;text-anchor:middle;"
        ><tspan
          x="100"
          y="50"
          >New</tspan><tspan
          x="100"
          y="100"
       >Game</tspan></text>
     </g>
  </g>
  <g
     id="new_game_box"
     transform="translate(750,375),scale(2)"
     style="display:none"
     >
  <defs
     id="defs1470">
    <path
       d="M19.989,67.951C20.012,67.33 20.035,66.709 20.058,66.088C20.868,66.419 20.794,67.366 20.911,68.082C21.299,70.345 23.324,72.374 25.713,72.235C28.262,72.142 30.169,69.712 30.243,67.271C30.427,64.725 28.655,61.984 25.991,61.706C24.113,61.471 22.322,62.648 21.443,64.256C21.252,64.674 20.031,64.951 20.35,64.229C20.632,63.289 21.807,63.33 22.406,62.677C25.038,60.58 24.969,56.043 22.261,54.042C20.544,52.653 17.834,52.927 16.385,54.578C14.151,56.862 14.479,61.093 17.14,62.908C17.74,63.398 18.861,63.442 18.918,64.412C18.936,64.989 17.764,64.52 17.662,64.056C16.61,62.135 14.087,61.087 12.039,62.028C9.17,63.24 8.195,67.102 9.695,69.714C10.713,71.758 13.374,72.886 15.49,71.854C17.353,71.029 18.409,68.994 18.464,67.021C18.489,66.442 19.407,65.662 19.22,66.643C19.399,69.11 19.282,71.626 18.663,74.027C18.716,74.539 17.516,75.747 18.583,75.561C19.426,75.561 20.27,75.561 21.113,75.561C20.762,74.345 20.192,72.947 20.129,71.575C19.998,70.372 19.988,69.16 19.989,67.951 z "
       id="club"
       style="fill:#000000" />
    <path
       d="M 28.436,64.673 C 23.374,68.813 22.264,70.196 19.626,76.196 C 16.988,70.196 15.878,68.813 10.816,64.673 C 15.878,60.533 16.988,59.149 19.626,53.150 C 22.264,59.149 23.374,60.533 28.436,64.673 z "
       id="diamond"
       style="fill:#dd0000" />
    <path
       d="M 19.626,74.835 C 15.340,67.291 9.652,62.800 9.696,59.913 C 9.741,57.126 11.799,54.511 14.621,54.511 C 17.552,54.511 19.321,56.839 19.626,59.873 C 19.931,56.839 21.700,54.511 24.631,54.511 C 27.453,54.511 29.512,57.126 29.556,59.913 C 29.600,62.800 23.912,67.291 19.626,74.835 z "
       id="heart"
       style="fill:#dd0000" />
    <path
       d="M 18.155,76.990 L 21.097,76.990 L 21.186,76.894 C 20.359,75.504 19.949,72.998 19.949,69.381 L 19.972,69.004 C 20.669,71.170 22.275,72.676 24.631,72.676 C 27.453,72.676 29.511,70.058 29.556,67.272 C 29.556,62.998 23.912,59.899 19.626,52.356 C 15.340,59.899 9.697,62.998 9.697,67.272 C 9.741,70.058 11.799,72.676 14.621,72.676 C 16.977,72.676 18.583,71.170 19.280,69.004 L 19.303,69.381 C 19.303,72.998 18.893,75.504 18.067,76.894 L 18.155,76.990 z "
       id="spade"
       style="fill:#000000" />
  </defs>
  <rect
     style="fill:#ffffff;stroke:#000000;stroke-width:3.5"
     width="500"
     height="400"
     x="0"
     y="0"
     ry="10"
     />
  <g
     id="new_game_suits_1"
     transform="translate(80,220)"
     style="cursor:default"
     >
    <rect
       ry="10"
       y="0"
       x="0"
       height="130"
       width="100"
       id="rect11388"
       style="stroke:#000000;stroke-width:3.5" />
    <rect
       ry="10"
       y="10"
       x="10"
       height="80"
       width="80"
       id="rect11370"
       style="fill:none;stroke:#000000;stroke-width:2" />
    <use
       transform="translate(15,-30)"
       height="100%"
       width="100%"
       y="0"
       x="0"
       xlink:href="#club"
       id="use11278" />
    <use
       id="use11364"
       xlink:href="#club"
       x="0"
       y="0"
       width="100%"
       height="100%"
       transform="translate(45,-30)" />
    <use
       id="use11366"
       xlink:href="#club"
       x="0"
       y="0"
       width="100%"
       height="100%"
       transform="translate(15,0)" />
    <use
       transform="translate(45,0)"
       height="100%"
       width="100%"
       y="0"
       x="0"
       xlink:href="#club"
       id="use11368" />
    <text
       id="text11376"
       y="120"
       x="50"
       style="font-weight:bold;font-size:20px;font-family:sans-serif;text-align:center;text-anchor:middle;fill:#000000"
       >1 Suit</text>
  </g>
  <g
     id="new_game_suits_2"
     transform="translate(200,220)"
     style="cursor:default"
     >
    <rect
       style="stroke:#000000;stroke-width:3.5"
       id="rect11390"
       width="100"
       height="130"
       x="0"
       y="0"
       ry="10" />
    <rect
       style="fill:none;stroke:#000000;stroke-width:2"
       id="rect11372"
       width="80"
       height="80"
       x="10"
       y="10"
       ry="10" />
    <use
       id="use11334"
       xlink:href="#club"
       x="0"
       y="0"
       width="100%"
       height="100%"
       transform="translate(15,-30)" />
    <use
       height="100%"
       width="100%"
       y="0"
       x="0"
       xlink:href="#diamond"
       transform="translate(45,-30)"
       id="use11342" />
    <use
       transform="translate(45,0)"
       height="100%"
       width="100%"
       y="0"
       x="0"
       xlink:href="#club"
       id="use11360" />
    <use
       id="use11362"
       transform="translate(15,0)"
       xlink:href="#diamond"
       x="0"
       y="0"
       width="100%"
       height="100%" />
    <text
       style="font-weight:bold;font-size:20px;font-family:sans-serif;text-align:center;text-anchor:middle;fill:#000000"
       x="50"
       y="120"
       id="text11380"
       >2 Suits</text>
  </g>
  <g
     id="new_game_suits_4"
     transform="translate(320,220)"
     style="cursor:default"
     >
    <rect
       ry="10"
       y="0"
       x="0"
       height="130"
       width="100"
       id="rect11392"
       style="stroke:#000000;stroke-width:3.5" />
    <rect
       ry="10"
       y="10"
       x="10"
       height="80"
       width="80"
       id="rect11374"
       style="fill:none;stroke:#000000;stroke-width:2" />
    <use
       transform="translate(15,-30)"
       height="100%"
       width="100%"
       y="0"
       x="0"
       xlink:href="#club"
       id="use11350" />
    <use
       id="use11358"
       transform="translate(45,-30)"
       xlink:href="#diamond"
       x="0"
       y="0"
       width="100%"
       height="100%" />
    <use
       id="use11352"
       transform="translate(15,0)"
       xlink:href="#heart"
       x="0"
       y="0"
       width="100%"
       height="100%" />
    <use
       id="use11356"
       transform="translate(45,0)"
       xlink:href="#spade"
       x="0"
       y="0"
       width="100%"
       height="100%" />
    <text
       id="text11384"
       y="120"
       x="50"
       style="font-weight:bold;font-size:20px;font-family:sans-serif;text-align:center;text-anchor:middle;fill:#000000"
       >4 Suits</text>
  </g>
  <g
     id="new_game_yes"
     transform="translate(140,130)"
     style="fill: #f0f0f0;cursor:default"
     >
    <rect
       ry="10"
       y="0"
       x="0"
       height="40"
       width="80"
       id="rect11436"
       style="stroke:#000000;stroke-width:3.5" />
    <text
       id="text11428"
       y="30"
       x="40"
       style="font-weight:bold;font-size:30px;font-family:sans-serif;text-align:center;text-anchor:middle;fill:#000000"
       >Yes</text>
  </g>
  <g
     id="new_game_no"
     transform="translate(280,130)"
     style="fill: #f0f0f0;cursor:default"
     >
    <rect
       style="stroke:#000000;stroke-width:3.5"
       id="rect11438"
       width="80"
       height="40"
       x="0"
       y="0"
       ry="10" />
    <text
       id="text11432"
       y="30"
       x="40"
       style="font-weight:bold;font-size:30px;font-family:sans-serif;text-align:center;text-anchor:middle;fill:#000000"
       >No</text>
  </g>
  <text
     style="font-weight:bold;font-size:45px;font-family:sans-serif;text-align:center;text-anchor:middle;fill:#000000"
     x="250"
     y="80"
     id="new_game_text"
     >New Game?</text>
  </g>
</svg>
