<?xml version="1.0" encoding="UTF-8" standalone="no"?>
<svg
   xmlns:dc="http://purl.org/dc/elements/1.1/"
   xmlns:cc="http://creativecommons.org/ns#"
   xmlns:rdf="http://www.w3.org/1999/02/22-rdf-syntax-ns#"
   xmlns:svg="http://www.w3.org/2000/svg"
   xmlns:xlink="http://www.w3.org/1999/xlink"
   xmlns="http://www.w3.org/2000/svg"
   version="1.1"
   width="1000"
   height="1000"
   id="svg" >
  <metadata
     id="metadata1472">
    <rdf:RDF>
      <cc:Work
         rdf:about="">
        <dc:format>image/svg+xml</dc:format>
        <dc:type
           rdf:resource="http://purl.org/dc/dcmitype/StillImage" />
        <dc:title></dc:title>
      </cc:Work>
    </rdf:RDF>
  </metadata>
  <style>
    .border { fill:#ffffff;stroke:#000000;stroke-width:3; }
    .label { font-size:45px;font-family:serif;font-weight:bold;text-align:center;text-anchor:middle;cursor:default; }
    .face { font-size:150px;font-family:serif;text-align:center;text-anchor:middle;cursor:default; }
    #back_rect { fill:#c0c0ff;stroke:#000000;stroke-width:1; }
    .black { fill: #000000; }
    .red { fill: #dd0000; }
  </style>
  <defs id="defs">
    <path
       d="M 18.313 0 C 7.791 8.606 5.484 11.482 -0 23.953 -5.483 11.482 -7.79 8.606 -18.313 0 -7.79 -8.605 -5.483 -11.482 -0 -23.953 5.484 -11.482 7.791 -8.605 18.313 0 Z"
       style="fill:#dd0000"
       id="diamond" />
    <path
       d="M -0 21.121 C -8.909 5.442 -20.731 -3.893 -20.639 -9.894 c 0.092 -5.791 4.37 -11.227 10.236 -11.227 6.092 0 9.77 4.839 10.403 11.144 C 0.633 -16.282 4.311 -21.121 10.403 -21.121 c 5.866 0 10.144 5.436 10.236 11.227 0.092 6.001 -11.73 15.336 -20.639 31.015 z"
       style="fill:#dd0000"
       id="heart" />
    <path
       id="spade"
       d="M 0.669,9.0 c 1.45,4.5 4.837,7.624 9.735,7.624 5.866,0 10.142,-5.44 10.234,-11.232 C 20.639,-3.48 8.909,-9.922 0,-25.602 -8.909,-9.922 -20.639,-3.4806564 -20.639,5.402 c 0.092,5.792 4.368,11.232 10.234,11.232 4.898,0 8.282,-3.119 9.733,-7.622 0,7.518 -0.854,13.687 -2.572,16.583 l 6.486,0 C 1.525,22.7 0.67,16.53 0.67,9.011 Z"
       style="fill:#000000" />
    <path
       d="M 0.7459 7.3652 c 0.047 -1.276 0.094 -2.551 0.141 -3.826 1.664 0.679 1.512 2.624 1.751 4.094 0.797 4.647 4.955 8.813 9.863 8.528 5.233 -0.19 9.149 -5.181 9.302 -10.192 0.378 -5.23 -3.261 -10.858 -8.732 -11.431 -3.857 -0.482 -7.534 1.935 -9.339 5.238 -0.392 0.858 -2.9 1.427 -2.245 -0.055 0.578 -1.931 2.991 -1.847 4.221 -3.187 5.406 -4.307 5.265 -13.623 -0.298 -17.733 -3.526 -2.853 -9.09 -2.29 -12.065 1.1 -4.589 4.691 -3.916 13.38 1.549 17.106 1.233 1.006 3.536 1.098 3.652 3.09 0.036 1.185 -2.371 0.221 -2.579 -0.731 -2.162 -3.945 -7.341 -6.098 -11.548 -4.165 -5.892 2.489 -7.893 10.421 -4.814 15.784 2.091 4.197 7.556 6.514 11.901 4.394 3.826 -1.694 5.994 -5.872 6.107 -9.924 0.052 -1.189 1.936 -2.791 1.553 -0.776 0.367 5.065 0.127 10.233 -1.143 15.163 0.108 1.052 -2.357 3.533 -0.165 3.149 1.732 0 3.464 0 5.196 0 -0.721 -2.496 -1.892 -5.367 -2.022 -8.184 C 0.7639 12.3362 0.7419 9.8472 0.7459 7.3652 Z"
       id="club"
       style="fill:#000000" />
    <use id="diamond_s" xlink:href="#diamond" transform="scale(0.5)" />
    <use id="heart_s" xlink:href="#heart" transform="scale(0.5)" />
    <use id="spade_s" xlink:href="#spade" transform="scale(0.5)" />
    <use id="club_s" xlink:href="#club" transform="scale(0.5)" />
  </defs>
</svg>
